<?xml version="1.0" encoding="utf-8"?>
<svg version="1.1" xmlns="http://www.w3.org/2000/svg" xmlns:xlink="http://www.w3.org/1999/xlink" viewBox="0 0 1152 1152">
<path fill="#F7F7F7" d="M1034,341c2.7,55.3-2,111.2-14,167.5S989.3,619,964,671s-57.2,100.7-95.5,146S785.7,901.8,735,935.5
	s-107.2,60.2-169.5,79.5c-62.3,19.3-130.2,29-203.5,29c-66.7,0-130.5-9.2-191.5-27.5C109.5,998.2,52.7,972,0,938
	c62.7,7.3,124.2,2.7,184.5-14S300,879.3,350,840c-26-0.7-50.7-5.2-74-13.5s-44.7-19.7-64-34S175.8,761,161.5,741s-25.2-41.7-32.5-65
	c36.7,6.7,72.3,5.3,107-4c-28.7-6-54.7-16.3-78-31s-43.5-32.5-60.5-53.5s-30-44.5-39-70.5S45.3,464.3,46,437c16,9.3,33,16.5,51,21.5
	s36.7,7.8,56,8.5c-26-18-47.3-39.5-64-64.5S60.7,350.7,54,322s-7.8-57.7-3.5-87c4.3-29.3,14.2-57.3,29.5-84
	c58.7,72,129.8,129.8,213.5,173.5S468.3,392.7,567,398c-8.7-36.7-8.7-72.5,0-107.5s23.8-66,45.5-93s48.5-48.7,80.5-65
	S760,108,798,108c34,0,65.8,6.7,95.5,20s55.2,31.3,76.5,54c27.3-5.3,53.3-12.8,78-22.5c24.7-9.7,48.7-21.2,72-34.5
	c-8.7,28-22,53.2-40,75.5s-39.3,40.8-64,55.5c24-3.3,47.3-8,70-14s44.7-13.7,66-23c-16,23.3-33.8,45.3-53.5,66
	S1057.3,324.3,1034,341z"/>
</svg>
