<?xml version="1.0" encoding="utf-8"?>
<!-- Generator: Adobe Illustrator 25.2.1, SVG Export Plug-In . SVG Version: 6.00 Build 0)  -->
<svg version="1.1" id="Слой_1" xmlns="http://www.w3.org/2000/svg" xmlns:xlink="http://www.w3.org/1999/xlink" x="0px" y="0px"
	 viewBox="0 0 24 37.8" enable-background="new 0 0 24 37.8" xml:space="preserve">
<path fill="#F7F7F7" d="M4.6,22.8l4.7-4.7c0.2-0.2,0.4-0.3,0.7-0.3c0.6,0,1,0.5,1,1c0,0.3-0.1,0.5-0.3,0.7l-3.3,3.3H4.6z M16.6,22.8
	h2.9l-4.7-4.7c-0.3-0.2-0.5-0.3-0.8-0.3c-0.6,0-1,0.5-1,1c0,0.3,0.1,0.5,0.3,0.7L16.6,22.8z M0,24.8v2h0.6c0.5,0,1,0.3,1.3,0.8
	L6,37.8h12l4.1-10.2c0.2-0.5,0.7-0.8,1.3-0.8H24v-2H0z"/>
<path fill="#F7F7F7" d="M15.9,8.7c-0.1-0.1-0.1-0.1-0.2-0.1h-2l0-8.2c0-0.2,0-0.4-0.2-0.4h-3.1c-0.2,0-0.4,0.2-0.4,0.4l0,8.2H8.3
	C8.1,8.6,8,8.8,8,8.9C8,9,8,9.1,8.1,9.1l3.7,3.6c0.1,0.1,0.3,0.1,0.4,0c0,0,0,0,0,0l3.7-3.6C16,9,16,8.8,15.9,8.7z"/>
</svg>
