<?xml version="1.0" encoding="utf-8"?>
<svg version="1.2" xmlns="http://www.w3.org/2000/svg" xmlns:xlink="http://www.w3.org/1999/xlink" viewBox="0 0 24 24">
<path id="telegram-4" fill-rule="evenodd" fill="#F7F7F7" d="M12,0C5.4,0,0,5.4,0,12c0,6.6,5.4,12,12,12c6.6,0,12-5.4,12-12
	C24,5.4,18.6,0,12,0z M15.2,17.9c0.2,0.1,0.4,0.2,0.6,0.1c0.2-0.1,0.4-0.3,0.4-0.5c0.5-2.4,1.7-8.4,2.2-10.6c0-0.2,0-0.3-0.2-0.4
	c-0.1-0.1-0.3-0.1-0.5-0.1c-2.4,0.9-10,3.7-13.1,4.9c-0.2,0.1-0.3,0.3-0.3,0.5c0,0.2,0.1,0.4,0.3,0.4c1.4,0.4,3.2,1,3.2,1
	s0.8,2.6,1.3,3.9c0.1,0.2,0.2,0.3,0.4,0.3c0.2,0,0.3,0,0.5-0.1c0.7-0.7,1.8-1.7,1.8-1.7S14,17,15.2,17.9z M8.8,12.8l1,3.2l0.2-2
	c0,0,3.8-3.4,5.9-5.4C16,8.6,16,8.5,16,8.4c-0.1-0.1-0.1-0.1-0.2,0C13.2,10,8.8,12.8,8.8,12.8z"/>
</svg>
