<?xml version="1.0" encoding="utf-8"?>
<svg version="1.2" xmlns="http://www.w3.org/2000/svg" xmlns:xlink="http://www.w3.org/1999/xlink" viewBox="0 0 1151.5 1152">
<path fill="#F7F7F7" d="M575.5,104h-93c-22.6,0-42.3,0.2-58.5,0.5c-8.7,0.2-23.1,0.4-41,1c-21.9,0.7-38.6,1.4-40.5,1.5
	C224.2,112.6,168,169,168,169c-37.7,38-58.2,96-61.5,174c-0.7,15.3-1.2,28.8-1.5,40.5c-0.3,11.7-0.7,25.3-1,41
	c-0.3,15.7-0.5,35.2-0.5,58.5v93v93c0,22.6,0.2,42.3,0.5,58.5c0.2,8.7,0.4,23.1,1,41c0.7,21.9,1.4,38.6,1.5,40.5
	C112,926.2,168,982.5,168,982.5c37.7,38.3,95.8,59.2,174.5,62.5c15.3,0.7,28.8,1.2,40.5,1.5c11.7,0.3,25.3,0.7,41,1
	c15.7,0.3,35.2,0.5,58.5,0.5h93h93c22.6,0,42.3-0.2,58.5-0.5c8.7-0.2,23.1-0.4,41-1c21.9-0.7,38.6-1.4,40.5-1.5
	c118.3-5.6,174.5-62,174.5-62c37.7-38,58.2-96,61.5-174c0.7-15.3,1.2-28.8,1.5-40.5c0.3-11.7,0.7-25.3,1-41
	c0.3-15.7,0.5-35.2,0.5-58.5v-93v-93c0-22.6-0.2-42.3-0.5-58.5c-0.2-8.7-0.4-23.1-1-41c-0.7-21.9-1.4-38.6-1.5-40.5
	c-5.6-117.9-61.5-174-61.5-174c-37.7-38-95.8-58.7-174.5-62c-15.3-0.7-28.8-1.2-40.5-1.5s-25.3-0.7-41-1s-35.2-0.5-58.5-0.5H575.5z
	 M575.5,0h94c23.1,0,43.3,0.2,60,0.5c18.2,0.3,33,0.7,42.5,1c23,0.7,40.3,1.4,41.5,1.5C970.3,10.2,1056,96,1056,96
	c56.3,56.7,87.2,137.7,92.5,243c0.7,15.3,1.2,29,1.5,41s0.7,26,1,42s0.5,36,0.5,60v94v94.5c0,22.8-0.2,42.9-0.5,59.5
	c-0.3,18.1-0.7,32.9-1,42.5c-0.7,23-1.4,40.3-1.5,41.5c-7.2,157.2-92.5,242.5-92.5,242.5c-56.3,56.3-137.2,87.2-242.5,92.5
	c-15.3,0.7-29.2,1.2-41.5,1.5s-26.5,0.7-42.5,1s-36,0.5-60,0.5h-94H481c-22.9,0-42.9-0.2-59.5-0.5c-18-0.3-32.7-0.7-42-1
	c-22.9-0.7-39.9-1.4-41-1.5c-157.5-7.2-243-92.5-243-92.5C38.8,1000.2,7.8,919.3,2.5,814c-0.7-15.3-1.2-29.2-1.5-41.5
	C0.6,760.2,0.3,746,0,730s-0.5-35.8-0.5-59.5V576v-94c0-23.1,0.2-43.4,0.5-60c0.3-18.1,0.7-32.8,1-42c0.7-22.9,1.4-39.9,1.5-41
	c7.2-157.2,93-243,93-243c56.7-56.7,137.7-87.7,243-93c15.3-0.7,29-1.2,41-1.5s26-0.7,42-1S457.3,0,481,0H575.5z M575.5,280
	c40.7,0,79,7.8,115,23.5c36,15.7,67.3,36.8,94,63.5c26.7,26.7,47.8,58,63.5,94s23.5,74.3,23.5,115c0,40.7-7.8,79-23.5,115
	s-36.8,67.3-63.5,94s-58,47.8-94,63.5s-74.3,23.5-115,23.5s-79-7.8-115-23.5s-67.3-36.8-94-63.5s-47.8-58-63.5-94
	s-23.5-74.3-23.5-115c0-40.7,7.8-79,23.5-115s36.8-67.3,63.5-94c26.7-26.7,58-47.8,94-63.5C496.5,287.8,534.8,280,575.5,280z
	 M575.5,768c26.7,0,51.7-5,75-15s43.7-23.7,61-41s31-37.7,41-61s15-48.3,15-75c0-26.7-5-51.7-15-75s-23.7-43.7-41-61s-37.7-31-61-41
	s-48.3-15-75-15s-51.7,5-75,15c-23.3,10-43.7,23.7-61,41s-31,37.7-41,61s-15,48.3-15,75c0,26.7,5,51.7,15,75s23.7,43.7,41,61
	s37.7,31,61,41C523.8,763,548.8,768,575.5,768z M882.5,199c19.3,0,35.8,6.8,49.5,20.5c13.7,13.7,20.5,30.2,20.5,49.5
	c0,19.3-6.8,35.7-20.5,49c-13.7,13.3-30.2,20-49.5,20s-35.7-6.7-49-20c-13.3-13.3-20-29.7-20-49c0-19.3,6.7-35.8,20-49.5
	C846.8,205.8,863.1,199,882.5,199z"/>
</svg>