<?xml version="1.0" encoding="utf-8"?>
<!-- Generator: Adobe Illustrator 25.2.1, SVG Export Plug-In . SVG Version: 6.00 Build 0)  -->
<svg version="1.1" id="Слой_2" xmlns="http://www.w3.org/2000/svg" xmlns:xlink="http://www.w3.org/1999/xlink" x="0px" y="0px"
	 viewBox="0 0 1085 153" enable-background="new 0 0 1085 153" xml:space="preserve">
<g>
	<path fill="#F7BF3F" d="M936,71h145c3.5-1.6,5-5.7,3.4-9.2c-0.5-1.1-1.3-2.1-2.4-2.8H922C927.2,62.3,931.9,66.4,936,71z"/>
	<path fill="#F7BF3F" d="M876,49c-12.9,0.5-28,11.3-28,28c0,16.7,15.1,27.5,28,28c5.3,0.1,10.5-1.2,15-4l35-24l-35-24
		C886.5,50.2,881.3,48.9,876,49z"/>
	<path fill="#F7BF3F" d="M894,39c3.6,1.5,7,3.5,10,6c1.7,1.3,3.3,2.6,5,4h148c2.7-3.2,2.7-7.8,0-11H891C892,38.3,893,38.6,894,39z"
		/>
	<path fill="#F7BF3F" d="M1039,126H883h-3.9c0,0-12.8,8.3-19.5,10.7c-7.9,2.8-16.2,4.2-24.6,4.2c-17.5,0-32.2-5.9-44-17.6
		s-17.7-27.4-17.7-46.9c0-18.8,5.8-34.2,17.5-46.1c11.7-12,27-17.9,46.1-17.9c4.2,0,8.4,0.4,12.5,1.1c3.9,0.7,7.8,1.8,11.5,3.2
		c8.1,3.2,19.8,11.4,19.8,11.4H1039c0.6-0.4,1.1-0.9,1.5-1.5c2.5-3.3,1.8-8-1.5-10.5H885c0,0-15.7-9.8-23.6-12.1
		c-8.4-2.6-17.1-3.9-25.9-3.8c-21.6,0-39.8,7.1-54.5,21.4c-12.9,12.4-20.2,27.9-21.8,46.6H736c-1.8-17.7-9.1-32.9-22.1-45.7
		c-15-14.8-33.6-22.2-55.7-22.2c-21.6,0-40,7.4-55.2,22.1c-13.1,12.7-20.5,28-22.3,45.8h-44.5L511,3l-1-3l-25.5,68h-42.7
		c-1.8-17.7-9.1-32.9-22.1-45.7c-15-14.8-33.6-22.2-55.7-22.2c-21.7,0-40,7.4-55.2,22.1c-13.1,12.7-20.5,28-22.3,45.8h-77.3L276,0
		h-18l-68.6,71.7L189,0h-13v68H0v16h176v68h13l0.4-76.8L260,152h19l-64.9-68h72.4c1.6,17.9,9.2,33.5,22.8,46.6
		c15.4,14.9,33.7,22.4,54.8,22.4c20.9,0,39.2-7.3,54.8-22c13.8-13,21.5-28.6,23.1-47h36.6L453,152h13l44.8-119.2L555,152h14
		l-26.5-68h38.1c1.6,17.9,9.2,33.5,22.8,46.6c15.4,14.9,33.7,22.4,54.8,22.4c20.9,0,39.2-7.3,54.8-22c13.8-13,21.5-28.6,23.1-47h23
		c1.5,19.5,8.6,35.5,21.6,47.9l0,0c14.6,14,32.9,21.1,54.8,21.1c3.9,0,7.8-0.3,11.7-0.9c4-0.6,8-1.4,12-2.5
		c8.2-2.3,16.9-7.1,23.9-11.6h156c3.3-2.5,4-7.2,1.5-10.5C1040.1,126.9,1039.6,126.4,1039,126z M409.6,122.2
		c-12.4,12.5-27.6,18.7-45.5,18.7c-17.9,0-33-6.2-45.3-18.7c-12.3-12.5-18.5-27.7-18.5-45.7c0-18.2,6.2-33.5,18.7-45.8
		c12.5-12.3,27.5-18.5,45.1-18.5c17.9,0,33,6.2,45.5,18.6c12.5,12.4,18.7,27.6,18.7,45.6C428.2,94.5,422,109.7,409.6,122.2z
		 M703.8,122.2c-12.4,12.5-27.6,18.7-45.5,18.7c-17.9,0-33-6.2-45.3-18.7s-18.5-27.7-18.5-45.7c0-18.2,6.2-33.5,18.7-45.8
		s27.5-18.5,45.1-18.5c17.9,0,33,6.2,45.5,18.6c12.5,12.4,18.7,27.6,18.7,45.6C722.4,94.5,716.2,109.7,703.8,122.2z"/>
	<path fill="#F7BF3F" d="M909,105c-1.7,1.4-3.3,2.7-5,4c-3,2.5-6.4,4.5-10,6c-1,0.4-2,0.7-3,1h166c2.7-3.2,2.7-7.8,0-11H909z"/>
	<path fill="#F7BF3F" d="M1081,83H936c-4.1,4.6-8.8,8.7-14,12h160c1-0.7,1.8-1.7,2.4-2.8C1086,88.7,1084.5,84.6,1081,83z"/>
</g>
</svg>
